# xmcd
#
# Track frame offsets:
#	150
#	19910
#	63543
#	78765
#	94830
#	117676
#	136240
#	154711
#	174712
#	190028
#	207002
#	229583
#	256101
#	286407
#	303270
#	324523
#
# Disc length: 4513 seconds
#
# Revision: 1
# Processed by: cddbd v1.5.2PL0 Copyright (c) Steve Scherf et al.
# Submitted via: audiograbber 1.83.01
#
DISCID=d4119f10
DTITLE=Various Artist - Wondrous Stories CD2
DYEAR=2010
DGENRE=Pop
TTITLE0=Peter Garbriel - Solsbury Hill
TTITLE1=Emerson, Lake and Palmer - Fanfare for the Common Man
TTITLE2=Focus - Hocus Pocus
TTITLE3=Marillion - Kayleigh
TTITLE4=Golden Earing - Radar Love
TTITLE5=Procol Harum - A Whiter Shade of Pale
TTITLE6=Renaissance - Northern Lights
TTITLE7=The Moody Blues - Nights in White Satin
TTITLE8=Manfred Manns Earth Band - Joybringer
TTITLE9=Rick Wakeman - Catherine of Aragon
TTITLE10=Caravan - In the Land of Grey and Pink
TTITLE11=Aphrodites Child - The Four Horsemen
TTITLE12=Gentle Giant - Playing the Game
TTITLE13=East of Eden - Jig-A-Jig
TTITLE14=Wishbone Ash - Jail Bait
TTITLE15=Andrew Lloyd Webber - Paganini Theme
EXTD=
EXTT0=
EXTT1=
EXTT2=
EXTT3=
EXTT4=
EXTT5=
EXTT6=
EXTT7=
EXTT8=
EXTT9=
EXTT10=
EXTT11=
EXTT12=
EXTT13=
EXTT14=
EXTT15=
PLAYORDER=
